<svg width="32" height="32" viewBox="0 0 64 64" fill="none" xmlns="http://www.w3.org/2000/svg">
  <path d="M32 4L8 16v16c0 14.4 10.24 27.84 24 32 13.76-4.16 24-17.6 24-32V16L32 4z" fill="#0B0F19" stroke="#D4AF37" stroke-width="2" stroke-linejoin="round"/>
  <path d="M32 8L12 18v14c0 12.6 8.96 24.36 20 28 11.04-3.64 20-15.4 20-28V18L32 8z" fill="#0B0F19"/>
  <line x1="22" y1="22" x2="42" y2="22" stroke="#D4AF37" stroke-width="1.5" stroke-linecap="round"/>
  <line x1="32" y1="18" x2="32" y2="26" stroke="#D4AF37" stroke-width="1.5" stroke-linecap="round"/>
  <path d="M22 22c-1 3-1 5 0 7" stroke="#D4AF37" stroke-width="1.2" stroke-linecap="round" fill="none"/>
  <path d="M19 29h6" stroke="#D4AF37" stroke-width="1.2" stroke-linecap="round"/>
  <path d="M42 22c1 3 1 5 0 7" stroke="#D4AF37" stroke-width="1.2" stroke-linecap="round" fill="none"/>
  <path d="M39 29h6" stroke="#D4AF37" stroke-width="1.2" stroke-linecap="round"/>
  <text x="32" y="48" text-anchor="middle" font-family="serif" font-size="22" font-weight="bold" fill="#D4AF37">L</text>
</svg>
